<svg width="271" height="271" viewBox="0 0 271 271" fill="none" xmlns="http://www.w3.org/2000/svg">
<path fill-rule="evenodd" clip-rule="evenodd" d="M270.709 264.981V142.262L252.433 132.213V264.958H241.959V71.6634L168.929 111.837V264.981H157.676V152.195L146.424 146.013V264.981H135.196V139.83L123.944 133.648V264.981H112.741V127.466L101.488 121.284V264.981H90.2362V6.1823L163.29 46.3786V94.0307L168.929 97.1334V43.2759L163.29 40.1964L90.2362 0L79.0084 6.1823V108.919L67.7562 115.101V12.3645L56.5283 18.5468V121.284L45.3004 127.466V24.7291L34.0482 30.9114V133.648L22.796 139.83V37.0937L11.5681 43.2759V146.013L0.315948 152.195V264.981H0V270.77H270.903V264.981H270.709ZM205.456 264.981H180.035V154.464L205.334 168.357L205.456 264.981Z" fill="url(#paint0_linear_43_9)"/>
<defs>
<linearGradient id="paint0_linear_43_9" x1="135.391" y1="271.95" x2="135.391" y2="15.9535" gradientUnits="userSpaceOnUse">
<stop stop-color="#159792"/>
<stop offset="1" stop-color="#1ED1C4"/>
</linearGradient>
</defs>
</svg>
