<svg width="271" height="250" viewBox="0 0 271 250" fill="none" xmlns="http://www.w3.org/2000/svg">
<path d="M2.22981e-05 0V47.7911C-0.00317962 49.4552 0.338486 51.1036 1.00542 52.6416C1.67235 54.1796 2.65141 55.577 3.88648 56.7537C5.12154 57.9304 6.58828 58.8632 8.20258 59.4986C9.81688 60.1341 11.547 60.4596 13.2936 60.4565H15.408H16.5502C34.9495 61.9743 52.7077 67.6326 68.3638 76.9658C97.2598 93.7065 116.969 105.075 107.734 163.795C105.542 176.544 104.211 189.414 103.749 202.325C103.749 227.239 116.605 247.638 132.912 249.537C133.718 249.637 134.529 249.691 135.342 249.699C152.865 249.699 167.057 228.489 167.057 202.325C166.593 189.415 165.27 176.546 163.096 163.795C153.958 105.075 173.546 93.7065 202.466 76.9658C218.28 67.5296 236.242 61.8519 254.839 60.4103H257.537C259.282 60.4103 261.011 60.0827 262.624 59.4462C264.237 58.8097 265.702 57.8768 266.937 56.7007C268.171 55.5246 269.15 54.1284 269.818 52.5917C270.486 51.0551 270.83 49.408 270.83 47.7447V0H2.22981e-05ZM135.512 235.783C133.106 235.729 130.748 235.133 128.63 234.045C126.512 232.957 124.694 231.407 123.324 229.522C121.954 227.637 121.072 225.47 120.749 223.198C120.426 220.926 120.671 218.613 121.465 216.449C121.635 216.009 121.854 215.523 122.073 214.99C123.207 212.511 125.076 210.402 127.45 208.92C129.825 207.439 132.601 206.65 135.439 206.65C138.278 206.65 141.054 207.439 143.428 208.92C145.803 210.402 147.672 212.511 148.806 214.99C149.049 215.523 149.268 216.009 149.413 216.449C149.979 217.934 150.275 219.5 150.288 221.08C150.284 224.878 148.73 228.526 145.954 231.252C143.179 233.979 139.4 235.57 135.415 235.69M248.204 49.6202L215.736 26.0027L183.753 49.1572L151.528 26.0027L119.327 49.1572L87.2956 26.0027L55.2402 49.1572L19.0291 23.0156L22.6988 18.3847L55.3374 42.0024L87.3928 18.8479L119.424 42.0024L151.625 18.8479L183.851 42.0024L215.833 18.8479L251.996 45.1282L248.204 49.6202Z" fill="url(#paint0_linear_43_4)"/>
<defs>
<linearGradient id="paint0_linear_43_4" x1="135.488" y1="232.565" x2="135.488" y2="1.92183" gradientUnits="userSpaceOnUse">
<stop stop-color="#159792"/>
<stop offset="1" stop-color="#1ED1C4"/>
</linearGradient>
</defs>
</svg>
