<svg width="44" height="84" viewBox="0 0 44 84" fill="none" xmlns="http://www.w3.org/2000/svg">
<path fill-rule="evenodd" clip-rule="evenodd" d="M43.5465 42.6099V22.8762L40.6077 21.2603V42.6062H38.9234V11.5237L27.1799 17.9837V42.6099H25.3705V24.4735L23.5611 23.4794V42.6099H21.7557V22.4852L19.9463 21.4911V42.6099H18.1447V20.497L16.3353 19.5029V42.6099H14.5259V0.994136L26.2733 7.45785V15.1205L27.1799 15.6194V6.95892L26.2733 6.46372L14.5259 0L12.7204 0.994136V17.5146L10.911 18.5087V1.98826L9.10554 2.9824V19.5029L7.30006 20.497V3.97653L5.49066 4.97066V21.4911L3.68127 22.4852V5.9648L1.87579 6.95892V23.4794L0.0663924 24.4735V42.6099H0.0155869V43.5407H43.5778V42.6099H43.5465ZM33.0536 42.6099H28.9659V24.8384L33.0341 27.0724L33.0536 42.6099Z" fill="url(#paint0_linear_16_35)"/>
<path d="M3.58561e-06 43.4104V51.0954C-0.000511295 51.363 0.0544299 51.628 0.161675 51.8754C0.26892 52.1227 0.426357 52.3474 0.62496 52.5366C0.823563 52.7258 1.05942 52.8758 1.319 52.978C1.57859 53.0802 1.8568 53.1325 2.13767 53.132H2.47766H2.66133C5.62001 53.3761 8.47559 54.286 10.9931 55.7868C15.6397 58.4788 18.8091 60.3069 17.3241 69.7493C16.9716 71.7993 16.7575 73.8688 16.6832 75.9449C16.6832 79.9513 18.7505 83.2315 21.3727 83.5368C21.5023 83.5529 21.6328 83.5616 21.7635 83.5629C24.5812 83.5629 26.8634 80.1523 26.8634 75.9449C26.7887 73.869 26.576 71.7996 26.2264 69.7493C24.757 60.3069 27.9069 58.4788 32.5573 55.7868C35.1002 54.2694 37.9885 53.3564 40.979 53.1246H41.4128C41.6935 53.1246 41.9715 53.0719 42.2309 52.9696C42.4902 52.8672 42.7259 52.7172 42.9244 52.5281C43.1229 52.339 43.2803 52.1144 43.3878 51.8673C43.4952 51.6202 43.5505 51.3554 43.5505 51.0879V43.4104H3.58561e-06ZM21.7909 81.3252C21.404 81.3165 21.0248 81.2207 20.6842 81.0457C20.3436 80.8708 20.0512 80.6216 19.831 80.3184C19.6107 80.0153 19.4688 79.6668 19.4169 79.3014C19.3649 78.9361 19.4044 78.5642 19.5321 78.2162C19.5594 78.1454 19.5946 78.0673 19.6298 77.9816C19.8122 77.583 20.1127 77.2438 20.4945 77.0056C20.8763 76.7673 21.3228 76.6404 21.7791 76.6404C22.2355 76.6404 22.682 76.7673 23.0638 77.0056C23.4456 77.2438 23.7461 77.583 23.9285 77.9816C23.9676 78.0673 24.0028 78.1454 24.0262 78.2162C24.1172 78.455 24.1648 78.7068 24.1669 78.9609C24.1662 79.5716 23.9163 80.1582 23.47 80.5966C23.0237 81.035 22.416 81.291 21.7752 81.3103M39.9122 51.3895L34.6911 47.5917L29.5482 51.3151L24.3662 47.5917L19.1882 51.3151L14.0374 47.5917L8.88282 51.3151L3.05994 47.1114L3.65005 46.3667L8.89846 50.1645L14.0531 46.4412L19.2038 50.1645L24.3819 46.4412L29.5638 50.1645L34.7067 46.4412L40.5218 50.6672L39.9122 51.3895Z" fill="url(#paint1_linear_16_35)"/>
<defs>
<linearGradient id="paint0_linear_16_35" x1="21.7869" y1="43.7306" x2="21.7869" y2="2.56538" gradientUnits="userSpaceOnUse">
<stop stop-color="#159792"/>
<stop offset="1" stop-color="#1ED1C4"/>
</linearGradient>
<linearGradient id="paint1_linear_16_35" x1="21.787" y1="80.8076" x2="21.787" y2="43.7194" gradientUnits="userSpaceOnUse">
<stop stop-color="#159792"/>
<stop offset="1" stop-color="#1ED1C4"/>
</linearGradient>
</defs>
</svg>
